<?xml version="1.0" encoding="UTF-8"?>
<svg width="48px" height="42px" viewBox="0 0 48 42" version="1.1" xmlns="http://www.w3.org/2000/svg" xmlns:xlink="http://www.w3.org/1999/xlink">
    <title>220节点 </title>
    <g id="220节点-" stroke="none" stroke-width="1" fill="none" fill-rule="evenodd">
        <circle id="Oval-Copy-6" fill="#314963" cx="24" cy="21" r="21"></circle>
        <path d="M23.021652,11.0010025 L23.021652,14.0284196 C19.6214916,14.5166157 17.0072173,17.4417824 17.0072173,20.9754398 C17.0072173,24.8509348 20.148757,27.9926319 24.0240577,27.9926319 C25.5998396,27.9926319 27.0553328,27.4733597 28.2261427,26.5952083 L30.3682839,28.7374568 C28.6401363,30.1509198 26.4298316,31 24.0240577,31 C18.4877706,31 14,26.5120044 14,20.9754398 C14,15.7777054 17.9564956,11.5032329 23.021652,11.0010025 Z M33.9979952,21.9778958 C33.797514,23.9938349 33.0016038,25.8343441 31.7856856,27.3189815 L29.6435445,25.1777355 C30.3321973,24.2594857 30.7993184,23.1668087 30.9697273,21.9778958 L33.9989976,21.9778958 L33.9979952,21.9778958 Z M25.0284683,11.0010025 C29.7638332,11.4711543 33.5288693,15.2373816 34,19.9729838 L30.9707298,19.9729838 C30.531676,16.9004561 28.100842,14.4695003 25.0284683,14.0294221 L25.0284683,11 L25.0284683,11.0010025 Z" id="Shape-Copy" fill="#67B9FF" fill-rule="nonzero"></path>
    </g>
</svg>